<svg width="19" height="19" viewBox="0 0 19 19" fill="none" xmlns="http://www.w3.org/2000/svg">
<path d="M8.5 3.38218V16.7402C8.5 17.7121 7.7121 18.5 6.74018 18.5C5.99646 18.5 5.33302 18.0325 5.08288 17.3321L2.93647 11.1829M15.5 10.5C17.1569 10.5 18.5 9.15685 18.5 7.5C18.5 5.84315 17.1569 4.5 15.5 4.5M2.93647 11.1829C1.5043 10.5741 0.5 9.15433 0.5 7.5C0.5 5.29086 2.29086 3.5 4.49999 3.5H6.33208C10.4327 3.5 13.9569 2.2659 15.5 0.5L15.5 14.5C13.9569 12.7341 10.4327 11.5 6.33208 11.5L4.49998 11.5C3.94518 11.5 3.41677 11.387 2.93647 11.1829Z" stroke="#0F172A" stroke-linecap="round" stroke-linejoin="round"/>
</svg>
