<svg width="19" height="15" viewBox="0 0 19 15" fill="none" xmlns="http://www.w3.org/2000/svg">
<path d="M10.5 11.5V1.5C10.5 0.947715 10.0523 0.5 9.5 0.5H1.5C0.947715 0.5 0.5 0.947715 0.5 1.5V11.5C0.5 12.0523 0.947715 12.5 1.5 12.5H2.5M10.5 11.5C10.5 12.0523 10.0523 12.5 9.5 12.5H6.5M10.5 11.5L10.5 3.5C10.5 2.94772 10.9477 2.5 11.5 2.5H14.0858C14.351 2.5 14.6054 2.60536 14.7929 2.79289L18.2071 6.20711C18.3946 6.39464 18.5 6.649 18.5 6.91421V11.5C18.5 12.0523 18.0523 12.5 17.5 12.5H16.5M10.5 11.5C10.5 12.0523 10.9477 12.5 11.5 12.5H12.5M2.5 12.5C2.5 13.6046 3.39543 14.5 4.5 14.5C5.60457 14.5 6.5 13.6046 6.5 12.5M2.5 12.5C2.5 11.3954 3.39543 10.5 4.5 10.5C5.60457 10.5 6.5 11.3954 6.5 12.5M12.5 12.5C12.5 13.6046 13.3954 14.5 14.5 14.5C15.6046 14.5 16.5 13.6046 16.5 12.5M12.5 12.5C12.5 11.3954 13.3954 10.5 14.5 10.5C15.6046 10.5 16.5 11.3954 16.5 12.5" stroke="#0F172A"/>
</svg>
