<svg width="24" height="24" viewBox="0 0 24 24" fill="none" xmlns="http://www.w3.org/2000/svg">
<path fill-rule="evenodd" clip-rule="evenodd" d="M5.32136 3.64848C5.82377 3.3215 6.49506 3.2603 7.08764 3.61416L18.7084 10.5693C18.7084 10.5693 18.7085 10.5693 18.7084 10.5693C19.2545 10.896 19.4995 11.4721 19.4995 12C19.4995 12.5278 19.2547 13.1038 18.7086 13.4305C18.7086 13.4306 18.7087 13.4305 18.7086 13.4305L7.08829 20.3854C6.49571 20.7392 5.82377 20.6784 5.32136 20.3514C4.82529 20.0286 4.5 19.4567 4.5 18.7968V5.20309C4.5 4.54326 4.82529 3.97134 5.32136 3.64848ZM6.13958 4.90567C6.07315 4.9489 6 5.04542 6 5.20309V18.7968C6 18.9545 6.07315 19.051 6.13958 19.0943C6.17332 19.1162 6.20401 19.1241 6.22775 19.125C6.24868 19.1258 6.2782 19.122 6.31861 19.0979L17.9384 12.1434C17.9604 12.1302 17.9995 12.0892 17.9995 12C17.9995 11.9107 17.9604 11.8697 17.9384 11.8566L6.31861 4.90202C6.31854 4.90198 6.31867 4.90206 6.31861 4.90202C6.27829 4.87799 6.24865 4.87412 6.22775 4.87492C6.20401 4.87582 6.17332 4.88371 6.13958 4.90567Z" fill="#1E293B"/>
</svg>
