<svg width="19" height="19" viewBox="0 0 19 19" fill="none" xmlns="http://www.w3.org/2000/svg">
<path d="M0.5 0.5H2.5L2.9 2.5M4.5 10.5H14.5L18.5 2.5H2.9M4.5 10.5L2.9 2.5M4.5 10.5L2.20711 12.7929C1.57714 13.4229 2.02331 14.5 2.91421 14.5H14.5M14.5 14.5C13.3954 14.5 12.5 15.3954 12.5 16.5C12.5 17.6046 13.3954 18.5 14.5 18.5C15.6046 18.5 16.5 17.6046 16.5 16.5C16.5 15.3954 15.6046 14.5 14.5 14.5ZM6.5 16.5C6.5 17.6046 5.60457 18.5 4.5 18.5C3.39543 18.5 2.5 17.6046 2.5 16.5C2.5 15.3954 3.39543 14.5 4.5 14.5C5.60457 14.5 6.5 15.3954 6.5 16.5Z" stroke="#0F172A" stroke-linecap="round" stroke-linejoin="round"/>
</svg>
