<svg width="21" height="17" viewBox="0 0 21 17" fill="none" xmlns="http://www.w3.org/2000/svg">
<path d="M15.5 16.5H20.5V14.5C20.5 12.8431 19.1569 11.5 17.5 11.5C16.5444 11.5 15.6931 11.9468 15.1438 12.6429M15.5 16.5H5.5M15.5 16.5V14.5C15.5 13.8438 15.3736 13.217 15.1438 12.6429M5.5 16.5H0.5V14.5C0.5 12.8431 1.84315 11.5 3.5 11.5C4.45561 11.5 5.30686 11.9468 5.85625 12.6429M5.5 16.5V14.5C5.5 13.8438 5.62642 13.217 5.85625 12.6429M5.85625 12.6429C6.5935 10.801 8.39482 9.5 10.5 9.5C12.6052 9.5 14.4065 10.801 15.1438 12.6429M13.5 3.5C13.5 5.15685 12.1569 6.5 10.5 6.5C8.84315 6.5 7.5 5.15685 7.5 3.5C7.5 1.84315 8.84315 0.5 10.5 0.5C12.1569 0.5 13.5 1.84315 13.5 3.5ZM19.5 6.5C19.5 7.60457 18.6046 8.5 17.5 8.5C16.3954 8.5 15.5 7.60457 15.5 6.5C15.5 5.39543 16.3954 4.5 17.5 4.5C18.6046 4.5 19.5 5.39543 19.5 6.5ZM5.5 6.5C5.5 7.60457 4.60457 8.5 3.5 8.5C2.39543 8.5 1.5 7.60457 1.5 6.5C1.5 5.39543 2.39543 4.5 3.5 4.5C4.60457 4.5 5.5 5.39543 5.5 6.5Z" stroke="#0F172A" stroke-linecap="round" stroke-linejoin="round"/>
</svg>
