<svg width="24" height="24" viewBox="0 0 24 24" fill="none" xmlns="http://www.w3.org/2000/svg">
<path d="M14.0008 22.7812H9.99299C9.9883 22.7812 9.98361 22.7812 9.97892 22.7812C9.37892 22.7719 8.87736 22.3547 8.75549 21.7687C8.7508 21.7547 8.7508 21.7359 8.74611 21.7219L8.43205 19.4813H8.42736C8.04299 19.2938 7.66799 19.0781 7.31642 18.8297L5.21174 19.6781C5.20705 19.6781 5.20236 19.6828 5.19767 19.6828C4.6258 19.8984 3.98361 19.6781 3.66955 19.1484C3.66955 19.1437 3.66486 19.1437 3.66486 19.1391L1.65861 15.6703C1.34924 15.1406 1.47111 14.4656 1.94455 14.0719C1.94924 14.0672 1.95392 14.0625 1.95861 14.0578L3.74924 12.6516L3.74455 12.6469C3.7258 12.4125 3.71642 12.2016 3.71642 11.9953C3.71642 11.7844 3.7258 11.5734 3.74455 11.3484L1.9633 9.95156C1.95392 9.94688 1.94924 9.94219 1.94455 9.93281C1.48049 9.53906 1.3633 8.86875 1.66799 8.34375L3.67424 4.875C3.67424 4.87031 3.67892 4.87031 3.67892 4.86563C3.99299 4.34063 4.63517 4.11563 5.20705 4.33125C5.21174 4.33125 5.21642 4.33594 5.22111 4.33594L7.3258 5.18437C7.68205 4.94062 8.05236 4.725 8.43674 4.5375L8.7508 2.29219C8.7508 2.28281 8.75549 2.27344 8.75549 2.26875C8.85392 1.67344 9.36955 1.23281 9.97424 1.21875C9.97892 1.21875 9.98361 1.21875 9.9883 1.21875H13.9961C14.0008 1.21875 14.0055 1.21875 14.0102 1.21875C14.6102 1.22813 15.1117 1.64531 15.2336 2.23125C15.2383 2.24531 15.2383 2.26406 15.243 2.27812L15.557 4.51875H15.5617C15.9461 4.70625 16.3211 4.92188 16.6727 5.17031L18.7774 4.32187C18.7821 4.32187 18.7867 4.31719 18.7914 4.31719C19.3633 4.09687 20.0055 4.32188 20.3195 4.85156C20.3195 4.85625 20.3242 4.85625 20.3242 4.86094L22.3305 8.32969C22.6399 8.85937 22.518 9.53438 22.0445 9.92813C22.0399 9.93281 22.0352 9.9375 22.0305 9.94219L20.2399 11.3484C20.2399 11.3531 20.2399 11.3578 20.2399 11.3578C20.2586 11.5969 20.268 11.8078 20.268 12V12.0047C20.268 12.2156 20.2586 12.4313 20.2399 12.6422L22.0305 14.0438C22.0352 14.0484 22.0399 14.0531 22.0445 14.0578C22.518 14.4516 22.6399 15.1219 22.3305 15.6562L20.3242 19.125C20.3242 19.1297 20.3195 19.1297 20.3195 19.1344C20.0055 19.6594 19.3633 19.8844 18.7914 19.6688C18.7867 19.6688 18.7821 19.6641 18.7774 19.6641L16.6727 18.8156C16.3164 19.0594 15.9461 19.275 15.5617 19.4625L15.2477 21.7078C15.2477 21.7172 15.243 21.7266 15.243 21.7313C15.1399 22.3266 14.6242 22.7672 14.0196 22.7812C14.0102 22.7812 14.0055 22.7812 14.0008 22.7812ZM10.1992 21.2812H13.7899L14.0758 19.2516C14.1461 18.7594 14.4555 18.3328 14.9055 18.1125C15.2242 17.9578 15.5289 17.7797 15.8195 17.5828C16.232 17.2969 16.7617 17.2359 17.2352 17.4234L19.1383 18.1875L20.9289 15.0891L18.9789 13.5656C18.768 13.4016 18.6602 13.1344 18.6977 12.8719C18.7399 12.5859 18.7586 12.2906 18.7633 12C18.7633 11.8453 18.7539 11.6766 18.7399 11.4797C18.693 10.9734 18.9086 10.4812 19.307 10.1672L20.9242 8.89688L19.1336 5.79844L17.2305 6.5625C16.7617 6.75 16.232 6.69375 15.8149 6.40313C15.5289 6.20156 15.2242 6.02344 14.9102 5.87344C14.4602 5.65781 14.1461 5.23125 14.0711 4.73438L13.7899 2.71875H10.1992L9.9133 4.74844C9.84299 5.24063 9.53361 5.66719 9.08361 5.8875C8.76486 6.04219 8.46017 6.22031 8.16955 6.41719C7.75705 6.70312 7.22736 6.76406 6.75392 6.57656L4.86017 5.8125L3.06955 8.91094L4.67736 10.1766C5.0758 10.4906 5.28674 10.9781 5.24455 11.4844C5.2258 11.6672 5.22111 11.8359 5.22111 12C5.22111 12.1594 5.23049 12.3281 5.24455 12.5203C5.29142 13.0266 5.08049 13.5188 4.68205 13.8328L3.06486 15.1031L4.85549 18.2016L6.75392 17.4375C7.22267 17.25 7.75236 17.3062 8.16955 17.5969C8.45549 17.7984 8.76017 17.9766 9.07424 18.1266C9.52424 18.3422 9.8383 18.7687 9.9133 19.2656L10.1992 21.2812ZM11.9992 15.75C11.8774 15.75 11.7508 15.7453 11.6289 15.7313C10.6305 15.6328 9.73517 15.15 9.09767 14.3766C8.46017 13.6031 8.16486 12.6281 8.2633 11.6297C8.46486 9.57188 10.307 8.0625 12.3649 8.26406C14.1367 8.44219 15.5477 9.85781 15.7258 11.625C15.7492 11.8687 15.7492 12.1172 15.7258 12.3656C15.5336 14.3016 13.9024 15.75 11.9992 15.75ZM11.9899 9.75C11.4695 9.75 10.9727 9.92812 10.5649 10.2609C10.1008 10.6406 9.81017 11.1797 9.75392 11.7797C9.69299 12.3797 9.87111 12.9609 10.2555 13.4297C10.6352 13.8938 11.1742 14.1844 11.7742 14.2406C13.007 14.3625 14.1133 13.4578 14.2352 12.2203C14.2492 12.075 14.2492 11.925 14.2352 11.7797C14.1274 10.7156 13.2789 9.86719 12.2149 9.75937C12.1399 9.75469 12.0649 9.75 11.9899 9.75Z" fill="#1E293B"/>
</svg>
